<mxfile host="app.diagrams.net" modified="2023-06-09T12:29:35.598Z" agent="Mozilla/5.0 (Windows NT 10.0; Win64; x64) AppleWebKit/537.36 (KHTML, like Gecko) Chrome/114.0.0.0 Safari/537.36" etag="2vMP26fe5_slXCvoc_mr" version="21.3.2" type="github">
  <diagram name="Page-1" id="FAZEdEU8j4wSGHtSHfy4">
    <mxGraphModel dx="1323" dy="717" grid="0" gridSize="10" guides="1" tooltips="1" connect="1" arrows="1" fold="1" page="1" pageScale="1" pageWidth="850" pageHeight="1100" math="0" shadow="0">
      <root>
        <mxCell id="0" />
        <mxCell id="1" parent="0" />
        <mxCell id="WiBFuDnjmOOBbJ8TPGdd-5" style="edgeStyle=orthogonalEdgeStyle;rounded=0;orthogonalLoop=1;jettySize=auto;html=1;entryX=0;entryY=0.5;entryDx=0;entryDy=0;entryPerimeter=0;" parent="1" source="WiBFuDnjmOOBbJ8TPGdd-1" target="WiBFuDnjmOOBbJ8TPGdd-4" edge="1">
          <mxGeometry relative="1" as="geometry" />
        </mxCell>
        <mxCell id="WiBFuDnjmOOBbJ8TPGdd-1" value="Users" style="sketch=0;outlineConnect=0;fontColor=#232F3E;gradientColor=none;strokeColor=#232F3E;fillColor=#ffffff;dashed=0;verticalLabelPosition=bottom;verticalAlign=top;align=center;html=1;fontSize=12;fontStyle=0;aspect=fixed;shape=mxgraph.aws4.resourceIcon;resIcon=mxgraph.aws4.users;" parent="1" vertex="1">
          <mxGeometry x="17" y="109" width="47" height="47" as="geometry" />
        </mxCell>
        <mxCell id="WiBFuDnjmOOBbJ8TPGdd-3" value="AWS Cloud" style="points=[[0,0],[0.25,0],[0.5,0],[0.75,0],[1,0],[1,0.25],[1,0.5],[1,0.75],[1,1],[0.75,1],[0.5,1],[0.25,1],[0,1],[0,0.75],[0,0.5],[0,0.25]];outlineConnect=0;gradientColor=none;html=1;whiteSpace=wrap;fontSize=12;fontStyle=0;container=1;pointerEvents=0;collapsible=0;recursiveResize=0;shape=mxgraph.aws4.group;grIcon=mxgraph.aws4.group_aws_cloud;strokeColor=#232F3E;fillColor=none;verticalAlign=top;align=left;spacingLeft=30;fontColor=#232F3E;dashed=0;" parent="1" vertex="1">
          <mxGeometry x="157" y="42" width="992" height="468" as="geometry" />
        </mxCell>
        <mxCell id="WiBFuDnjmOOBbJ8TPGdd-7" style="edgeStyle=orthogonalEdgeStyle;rounded=0;orthogonalLoop=1;jettySize=auto;html=1;" parent="WiBFuDnjmOOBbJ8TPGdd-3" source="WiBFuDnjmOOBbJ8TPGdd-4" target="WiBFuDnjmOOBbJ8TPGdd-6" edge="1">
          <mxGeometry relative="1" as="geometry" />
        </mxCell>
        <mxCell id="WiBFuDnjmOOBbJ8TPGdd-4" value="Amazon API Gateway" style="sketch=0;points=[[0,0,0],[0.25,0,0],[0.5,0,0],[0.75,0,0],[1,0,0],[0,1,0],[0.25,1,0],[0.5,1,0],[0.75,1,0],[1,1,0],[0,0.25,0],[0,0.5,0],[0,0.75,0],[1,0.25,0],[1,0.5,0],[1,0.75,0]];outlineConnect=0;fontColor=#232F3E;gradientColor=#945DF2;gradientDirection=north;fillColor=#5A30B5;strokeColor=#ffffff;dashed=0;verticalLabelPosition=bottom;verticalAlign=top;align=center;html=1;fontSize=12;fontStyle=0;aspect=fixed;shape=mxgraph.aws4.resourceIcon;resIcon=mxgraph.aws4.api_gateway;" parent="WiBFuDnjmOOBbJ8TPGdd-3" vertex="1">
          <mxGeometry x="79" y="58" width="65" height="65" as="geometry" />
        </mxCell>
        <mxCell id="WiBFuDnjmOOBbJ8TPGdd-9" style="edgeStyle=orthogonalEdgeStyle;rounded=0;orthogonalLoop=1;jettySize=auto;html=1;entryX=1;entryY=0.5;entryDx=0;entryDy=0;entryPerimeter=0;" parent="WiBFuDnjmOOBbJ8TPGdd-3" source="WiBFuDnjmOOBbJ8TPGdd-6" target="WiBFuDnjmOOBbJ8TPGdd-8" edge="1">
          <mxGeometry relative="1" as="geometry">
            <Array as="points">
              <mxPoint x="478" y="186" />
            </Array>
          </mxGeometry>
        </mxCell>
        <mxCell id="Y3srllyIaoa3jAlV0xNy-2" style="edgeStyle=orthogonalEdgeStyle;rounded=0;orthogonalLoop=1;jettySize=auto;html=1;entryX=0;entryY=0.5;entryDx=0;entryDy=0;entryPerimeter=0;" edge="1" parent="WiBFuDnjmOOBbJ8TPGdd-3" source="WiBFuDnjmOOBbJ8TPGdd-6" target="Y3srllyIaoa3jAlV0xNy-1">
          <mxGeometry relative="1" as="geometry">
            <Array as="points">
              <mxPoint x="623" y="91" />
              <mxPoint x="623" y="91" />
            </Array>
          </mxGeometry>
        </mxCell>
        <mxCell id="WiBFuDnjmOOBbJ8TPGdd-6" value="API Gateway Endpoint" style="sketch=0;outlineConnect=0;fontColor=#232F3E;gradientColor=none;fillColor=#B0084D;strokeColor=none;dashed=0;verticalLabelPosition=bottom;verticalAlign=top;align=center;html=1;fontSize=12;fontStyle=0;aspect=fixed;pointerEvents=1;shape=mxgraph.aws4.endpoint;" parent="WiBFuDnjmOOBbJ8TPGdd-3" vertex="1">
          <mxGeometry x="434" y="58" width="65" height="65" as="geometry" />
        </mxCell>
        <mxCell id="WiBFuDnjmOOBbJ8TPGdd-18" style="edgeStyle=orthogonalEdgeStyle;rounded=0;orthogonalLoop=1;jettySize=auto;html=1;entryX=0.5;entryY=0;entryDx=0;entryDy=0;entryPerimeter=0;exitX=0.5;exitY=1;exitDx=0;exitDy=0;exitPerimeter=0;" parent="WiBFuDnjmOOBbJ8TPGdd-3" source="WiBFuDnjmOOBbJ8TPGdd-8" target="WiBFuDnjmOOBbJ8TPGdd-16" edge="1">
          <mxGeometry relative="1" as="geometry" />
        </mxCell>
        <mxCell id="WiBFuDnjmOOBbJ8TPGdd-19" style="edgeStyle=orthogonalEdgeStyle;rounded=0;orthogonalLoop=1;jettySize=auto;html=1;entryX=0.5;entryY=0;entryDx=0;entryDy=0;entryPerimeter=0;exitX=0.5;exitY=1;exitDx=0;exitDy=0;exitPerimeter=0;" parent="WiBFuDnjmOOBbJ8TPGdd-3" target="WiBFuDnjmOOBbJ8TPGdd-15" edge="1">
          <mxGeometry relative="1" as="geometry">
            <mxPoint x="353.5" y="261" as="sourcePoint" />
            <mxPoint x="251.5" y="348" as="targetPoint" />
          </mxGeometry>
        </mxCell>
        <mxCell id="WiBFuDnjmOOBbJ8TPGdd-8" value="AWS Lambda" style="sketch=0;points=[[0,0,0],[0.25,0,0],[0.5,0,0],[0.75,0,0],[1,0,0],[0,1,0],[0.25,1,0],[0.5,1,0],[0.75,1,0],[1,1,0],[0,0.25,0],[0,0.5,0],[0,0.75,0],[1,0.25,0],[1,0.5,0],[1,0.75,0]];outlineConnect=0;fontColor=#232F3E;gradientColor=#F78E04;gradientDirection=north;fillColor=#D05C17;strokeColor=#ffffff;dashed=0;verticalLabelPosition=bottom;verticalAlign=top;align=center;html=1;fontSize=12;fontStyle=0;aspect=fixed;shape=mxgraph.aws4.resourceIcon;resIcon=mxgraph.aws4.lambda;" parent="WiBFuDnjmOOBbJ8TPGdd-3" vertex="1">
          <mxGeometry x="321" y="154" width="65" height="65" as="geometry" />
        </mxCell>
        <mxCell id="WiBFuDnjmOOBbJ8TPGdd-10" value="Amazon Cognito" style="sketch=0;points=[[0,0,0],[0.25,0,0],[0.5,0,0],[0.75,0,0],[1,0,0],[0,1,0],[0.25,1,0],[0.5,1,0],[0.75,1,0],[1,1,0],[0,0.25,0],[0,0.5,0],[0,0.75,0],[1,0.25,0],[1,0.5,0],[1,0.75,0]];outlineConnect=0;fontColor=#232F3E;gradientColor=#F54749;gradientDirection=north;fillColor=#C7131F;strokeColor=#ffffff;dashed=0;verticalLabelPosition=bottom;verticalAlign=top;align=center;html=1;fontSize=12;fontStyle=0;aspect=fixed;shape=mxgraph.aws4.resourceIcon;resIcon=mxgraph.aws4.cognito;" parent="WiBFuDnjmOOBbJ8TPGdd-3" vertex="1">
          <mxGeometry x="81" y="224" width="65" height="65" as="geometry" />
        </mxCell>
        <mxCell id="WiBFuDnjmOOBbJ8TPGdd-14" value="" style="edgeStyle=orthogonalEdgeStyle;html=1;endArrow=block;elbow=vertical;startArrow=block;startFill=1;endFill=1;strokeColor=#000000;rounded=0;" parent="WiBFuDnjmOOBbJ8TPGdd-3" edge="1">
          <mxGeometry width="100" relative="1" as="geometry">
            <mxPoint x="111" y="140" as="sourcePoint" />
            <mxPoint x="111" y="224" as="targetPoint" />
          </mxGeometry>
        </mxCell>
        <mxCell id="WiBFuDnjmOOBbJ8TPGdd-15" value="Amazon S3" style="sketch=0;points=[[0,0,0],[0.25,0,0],[0.5,0,0],[0.75,0,0],[1,0,0],[0,1,0],[0.25,1,0],[0.5,1,0],[0.75,1,0],[1,1,0],[0,0.25,0],[0,0.5,0],[0,0.75,0],[1,0.25,0],[1,0.5,0],[1,0.75,0]];outlineConnect=0;fontColor=#232F3E;gradientColor=#60A337;gradientDirection=north;fillColor=#277116;strokeColor=#ffffff;dashed=0;verticalLabelPosition=bottom;verticalAlign=top;align=center;html=1;fontSize=12;fontStyle=0;aspect=fixed;shape=mxgraph.aws4.resourceIcon;resIcon=mxgraph.aws4.glacier;" parent="WiBFuDnjmOOBbJ8TPGdd-3" vertex="1">
          <mxGeometry x="219" y="306" width="65" height="65" as="geometry" />
        </mxCell>
        <mxCell id="WiBFuDnjmOOBbJ8TPGdd-16" value="Parameter Store" style="outlineConnect=0;dashed=0;verticalLabelPosition=bottom;verticalAlign=top;align=center;html=1;shape=mxgraph.aws3.parameter_store;fillColor=#759C3E;gradientColor=none;" parent="WiBFuDnjmOOBbJ8TPGdd-3" vertex="1">
          <mxGeometry x="443" y="304" width="65" height="67" as="geometry" />
        </mxCell>
        <mxCell id="Y3srllyIaoa3jAlV0xNy-4" style="edgeStyle=orthogonalEdgeStyle;rounded=0;orthogonalLoop=1;jettySize=auto;html=1;entryX=0.5;entryY=0;entryDx=0;entryDy=0;entryPerimeter=0;" edge="1" parent="WiBFuDnjmOOBbJ8TPGdd-3" source="Y3srllyIaoa3jAlV0xNy-1" target="Y3srllyIaoa3jAlV0xNy-3">
          <mxGeometry relative="1" as="geometry" />
        </mxCell>
        <mxCell id="Y3srllyIaoa3jAlV0xNy-1" value="AWS Step Functions" style="sketch=0;points=[[0,0,0],[0.25,0,0],[0.5,0,0],[0.75,0,0],[1,0,0],[0,1,0],[0.25,1,0],[0.5,1,0],[0.75,1,0],[1,1,0],[0,0.25,0],[0,0.5,0],[0,0.75,0],[1,0.25,0],[1,0.5,0],[1,0.75,0]];outlineConnect=0;fontColor=#232F3E;gradientColor=#FF4F8B;gradientDirection=north;fillColor=#BC1356;strokeColor=#ffffff;dashed=0;verticalLabelPosition=bottom;verticalAlign=top;align=center;html=1;fontSize=12;fontStyle=0;aspect=fixed;shape=mxgraph.aws4.resourceIcon;resIcon=mxgraph.aws4.step_functions;" vertex="1" parent="WiBFuDnjmOOBbJ8TPGdd-3">
          <mxGeometry x="745" y="58" width="65" height="65" as="geometry" />
        </mxCell>
        <mxCell id="Y3srllyIaoa3jAlV0xNy-6" style="edgeStyle=orthogonalEdgeStyle;rounded=0;orthogonalLoop=1;jettySize=auto;html=1;entryX=0.5;entryY=0;entryDx=0;entryDy=0;entryPerimeter=0;" edge="1" parent="WiBFuDnjmOOBbJ8TPGdd-3" source="Y3srllyIaoa3jAlV0xNy-3" target="Y3srllyIaoa3jAlV0xNy-5">
          <mxGeometry relative="1" as="geometry" />
        </mxCell>
        <mxCell id="Y3srllyIaoa3jAlV0xNy-8" style="edgeStyle=orthogonalEdgeStyle;rounded=0;orthogonalLoop=1;jettySize=auto;html=1;entryX=0.5;entryY=0;entryDx=0;entryDy=0;entryPerimeter=0;" edge="1" parent="WiBFuDnjmOOBbJ8TPGdd-3" source="Y3srllyIaoa3jAlV0xNy-3" target="Y3srllyIaoa3jAlV0xNy-7">
          <mxGeometry relative="1" as="geometry" />
        </mxCell>
        <mxCell id="Y3srllyIaoa3jAlV0xNy-3" value="AWS Lambda" style="sketch=0;points=[[0,0,0],[0.25,0,0],[0.5,0,0],[0.75,0,0],[1,0,0],[0,1,0],[0.25,1,0],[0.5,1,0],[0.75,1,0],[1,1,0],[0,0.25,0],[0,0.5,0],[0,0.75,0],[1,0.25,0],[1,0.5,0],[1,0.75,0]];outlineConnect=0;fontColor=#232F3E;gradientColor=#F78E04;gradientDirection=north;fillColor=#D05C17;strokeColor=#ffffff;dashed=0;verticalLabelPosition=bottom;verticalAlign=top;align=center;html=1;fontSize=12;fontStyle=0;aspect=fixed;shape=mxgraph.aws4.resourceIcon;resIcon=mxgraph.aws4.lambda;" vertex="1" parent="WiBFuDnjmOOBbJ8TPGdd-3">
          <mxGeometry x="745" y="183" width="65" height="65" as="geometry" />
        </mxCell>
        <mxCell id="Y3srllyIaoa3jAlV0xNy-5" value="AWS Simple Notification &lt;br&gt;Service (SNS)" style="sketch=0;points=[[0,0,0],[0.25,0,0],[0.5,0,0],[0.75,0,0],[1,0,0],[0,1,0],[0.25,1,0],[0.5,1,0],[0.75,1,0],[1,1,0],[0,0.25,0],[0,0.5,0],[0,0.75,0],[1,0.25,0],[1,0.5,0],[1,0.75,0]];outlineConnect=0;fontColor=#232F3E;gradientColor=#FF4F8B;gradientDirection=north;fillColor=#BC1356;strokeColor=#ffffff;dashed=0;verticalLabelPosition=bottom;verticalAlign=top;align=center;html=1;fontSize=12;fontStyle=0;aspect=fixed;shape=mxgraph.aws4.resourceIcon;resIcon=mxgraph.aws4.sns;" vertex="1" parent="WiBFuDnjmOOBbJ8TPGdd-3">
          <mxGeometry x="594" y="306" width="65" height="65" as="geometry" />
        </mxCell>
        <mxCell id="Y3srllyIaoa3jAlV0xNy-9" style="edgeStyle=orthogonalEdgeStyle;rounded=0;orthogonalLoop=1;jettySize=auto;html=1;entryX=1;entryY=0.5;entryDx=0;entryDy=0;entryPerimeter=0;" edge="1" parent="WiBFuDnjmOOBbJ8TPGdd-3" source="Y3srllyIaoa3jAlV0xNy-7" target="Y3srllyIaoa3jAlV0xNy-5">
          <mxGeometry relative="1" as="geometry" />
        </mxCell>
        <mxCell id="Y3srllyIaoa3jAlV0xNy-7" value="AWS Lambda" style="sketch=0;points=[[0,0,0],[0.25,0,0],[0.5,0,0],[0.75,0,0],[1,0,0],[0,1,0],[0.25,1,0],[0.5,1,0],[0.75,1,0],[1,1,0],[0,0.25,0],[0,0.5,0],[0,0.75,0],[1,0.25,0],[1,0.5,0],[1,0.75,0]];outlineConnect=0;fontColor=#232F3E;gradientColor=#F78E04;gradientDirection=north;fillColor=#D05C17;strokeColor=#ffffff;dashed=0;verticalLabelPosition=bottom;verticalAlign=top;align=center;html=1;fontSize=12;fontStyle=0;aspect=fixed;shape=mxgraph.aws4.resourceIcon;resIcon=mxgraph.aws4.lambda;" vertex="1" parent="WiBFuDnjmOOBbJ8TPGdd-3">
          <mxGeometry x="876" y="305" width="65" height="65" as="geometry" />
        </mxCell>
      </root>
    </mxGraphModel>
  </diagram>
</mxfile>
